<svg xmlns="http://www.w3.org/2000/svg" xmlns:xlink="http://www.w3.org/1999/xlink" width="200" height="60" viewBox="0 0 200 60"><defs><style>.a,.c{fill:#5a5a5a;}.a{stroke:#707070;}.b{clip-path:url(#a);}</style><clipPath id="a"><rect class="a" width="200" height="60" transform="translate(382 190)"/></clipPath></defs><g class="b" transform="translate(-382 -190)"><g transform="translate(379.266 189.005)"><path class="c" d="M2.734,4.065H13.8V57.924H2.734Z"/><path class="c" d="M62.649,4.065A7.225,7.225,0,0,1,70,11.412V26.818a3.15,3.15,0,0,1-.813,2.032L62.649,35.3a2.845,2.845,0,0,1-2.032.894h-19.8l4.746-9.573H56.633a2.1,2.1,0,0,0,1.6-.671,2.195,2.195,0,0,0,.63-1.555V15.863a2.165,2.165,0,0,0-2.225-2.225H26.493l4.451-9.573ZM36.065,57.924a7.235,7.235,0,0,1-5.274-2.114,7.042,7.042,0,0,1-2.154-5.233v-23.9H39.815v19.44a2.1,2.1,0,0,0,.63,1.646,2.2,2.2,0,0,0,1.565.63H72.151l-4.827,9.532Z"/><path class="c" d="M121.945,35.8V48.493a2.845,2.845,0,0,1-.894,2.032L114.6,57.06a3.171,3.171,0,0,1-2.032.813h-36.2L81.124,48.3h27.438a2.154,2.154,0,0,0,2.205-2.185V35.8ZM114.6,4.065a7.225,7.225,0,0,1,7.347,7.388v13.14a3.171,3.171,0,0,1-.813,2.032L114.6,33.078a2.856,2.856,0,0,1-2.032.894H81.49L86.317,24.4h22.357a2.032,2.032,0,0,0,1.524-.671,2.205,2.205,0,0,0,.63-1.555V15.9a2.165,2.165,0,0,0-.63-1.6,2.032,2.032,0,0,0-1.524-.63H77.781L82.6,4.065Z"/><path class="c" d="M135.969,41.319v-2.7h3.638v2.7h9.9l-1.24,3.14H139.6V57.924h-3.628V44.459h-9.9l1.24-3.14Zm-2.4,4.136-3.262,12.469h-3.862l3.272-12.449Zm12.306,0,3.293,12.469h-3.851l-3.272-12.449Z"/><path class="c" d="M164.555,47.762V38.616h3.638v9.146h8.343L175.3,50.9h-8.465l-7.591,7.022h-6.311l1.087-3.14h3.221l4.339-3.892h-8.983l1.25-3.13Zm-7.042-4.736,2.368,3.719h-3.933l-2.276-3.74Zm3.689-3.618,2.408,3.984H159.7l-2.378-3.984Zm10.853,18.515-5.813-6.168h4.36l5.935,6.168Z"/><path class="c" d="M194.878,38.616l-3.76,6.809H194.1l8.638,12.347h-4.37l-7.876-11.178L184.32,57.771h-4.207l10.579-19.156Z"/></g></g></svg>